ffmpeg started on 2025-05-05 at 11:18:42
Report written to "D:\Convert\FFMetrics\reports\ssim_report-6.txt"
Log level: 32
Command line:
ffmpeg -hide_banner -nostdin -i "G:\\\xc0\xed\xe8\xec\xe5\\\xce\xed\xe3\xee\xe8\xed\xe3\xe8\\!_35_\xcb\xe5\xf2\xee_2024\\JamClub-1\\\xdd\xf2\xee\xf2 \xec\xe8\xf0 \xf1\xeb\xe8\xf8\xea\xee\xec \xed\xe5\xf1\xee\xe2\xe5\xf0\xf8\xe5\xed\xe5\xed\\JamClub_Kono_Sekai_wa_Fukanzen_Sugiru_12_1080p_HEVC.mkv" -i "G:\\\xc0\xed\xe8\xec\xe5\\\xce\xed\xe3\xee\xe8\xed\xe3\xe8\\!_35_\xcb\xe5\xf2\xee_2024\\JamClub-1\\\xdd\xf2\xee\xf2 \xec\xe8\xf0 \xf1\xeb\xe8\xf8\xea\xee\xec \xed\xe5\xf1\xee\xe2\xe5\xf0\xf8\xe5\xed\xe5\xed\\JamClub_Kono_Sekai_wa_Fukanzen_Sugiru_12_1080p.mp4" -lavfi "[0:v]settb=AVTB,setpts=PTS-STARTPTS,format=pix_fmts=yuv420p10,fps=24000/1001,scale=1920:1080:flags=bicubic[main];[1:v]settb=AVTB,setpts=PTS-STARTPTS,format=pix_fmts=yuv420p,fps=24000/1001,scale=1920:1080:flags=bicubic[ref];[main][ref]ssim=eof_action=endall:stats_file='D\\:/Convert/FFMetrics/logs/ssim_logfile-6.txt'" -f null -
Input #0, matroska,webm, from 'G:\Аниме\Онгоинги\!_35_Лето_2024\JamClub-1\Этот мир слишком несовершенен\JamClub_Kono_Sekai_wa_Fukanzen_Sugiru_12_1080p_HEVC.mkv':
  Metadata:
    COMPATIBLE_BRANDS: isomiso2avc1mp41
    MAJOR_BRAND     : isom
    MINOR_VERSION   : 512
    ENCODER         : Lavf61.7.100
  Duration: 00:24:27.35, start: -0.001000, bitrate: 1208 kb/s
  Stream #0:0: Video: hevc (Main 10), yuv420p10le(tv, bt709, progressive), 1920x1080 [SAR 1:1 DAR 16:9], 23.98 fps, 23.98 tbr, 1k tbn (default)
      Metadata:
        HANDLER_NAME    : VideoHandler
        VENDOR_ID       : [0][0][0][0]
        ENCODER         : Lavc61.19.100 libx265
        BPS             : 1009745
        DURATION        : 00:24:27.215708333
        NUMBER_OF_FRAMES: 35178
        NUMBER_OF_BYTES : 185189127
        _STATISTICS_WRITING_APP: mkvpropedit v66.0.0 ('Josie') 64-bit
        _STATISTICS_WRITING_DATE_UTC: 2025-05-04 17:44:32
        _STATISTICS_TAGS: BPS DURATION NUMBER_OF_FRAMES NUMBER_OF_BYTES
  Stream #0:1(eng): Audio: aac (LC), 48000 Hz, stereo, fltp (default)
      Metadata:
        HANDLER_NAME    : SoundHandler
        VENDOR_ID       : [0][0][0][0]
        ENCODER         : Lavc61.19.100 aac
        BPS             : 195061
        DURATION        : 00:24:27.309000000
        NUMBER_OF_FRAMES: 68781
        NUMBER_OF_BYTES : 35777017
        _STATISTICS_WRITING_APP: mkvpropedit v66.0.0 ('Josie') 64-bit
        _STATISTICS_WRITING_DATE_UTC: 2025-05-04 17:44:32
        _STATISTICS_TAGS: BPS DURATION NUMBER_OF_FRAMES NUMBER_OF_BYTES
Input #1, mov,mp4,m4a,3gp,3g2,mj2, from 'G:\Аниме\Онгоинги\!_35_Лето_2024\JamClub-1\Этот мир слишком несовершенен\JamClub_Kono_Sekai_wa_Fukanzen_Sugiru_12_1080p.mp4':
  Metadata:
    major_brand     : isom
    minor_version   : 512
    compatible_brands: isomiso2avc1mp41
    encoder         : Lavf60.16.100
  Duration: 00:24:27.33, start: 0.000000, bitrate: 3387 kb/s
  Stream #1:0[0x1](und): Video: h264 (High) (avc1 / 0x31637661), yuv420p(progressive), 1920x1080 [SAR 1:1 DAR 16:9], 3189 kb/s, 23.98 fps, 23.98 tbr, 90k tbn (default)
      Metadata:
        handler_name    : VideoHandler
        vendor_id       : [0][0][0][0]
  Stream #1:1[0x2](eng): Audio: aac (LC) (mp4a / 0x6134706D), 48000 Hz, stereo, fltp, 191 kb/s (default)
      Metadata:
        handler_name    : SoundHandler
        vendor_id       : [0][0][0][0]
Stream mapping:
  Stream #0:0 (hevc) -> settb:default
  Stream #1:0 (h264) -> settb:default
  ssim:default -> Stream #0:0 (wrapped_avframe)
  Stream #0:1 -> #0:1 (aac (native) -> pcm_s16le (native))
Output #0, null, to 'pipe:':
  Metadata:
    COMPATIBLE_BRANDS: isomiso2avc1mp41
    MAJOR_BRAND     : isom
    MINOR_VERSION   : 512
    encoder         : Lavf61.7.100
  Stream #0:0: Video: wrapped_avframe, yuv420p10le(tv, bt709, progressive), 1920x1080 [SAR 1:1 DAR 16:9], q=2-31, 200 kb/s, 23.98 fps, 23.98 tbn
      Metadata:
        encoder         : Lavc61.19.100 wrapped_avframe
  Stream #0:1(eng): Audio: pcm_s16le, 48000 Hz, stereo, s16, 1536 kb/s (default)
      Metadata:
        HANDLER_NAME    : SoundHandler
        VENDOR_ID       : [0][0][0][0]
        _STATISTICS_TAGS: BPS DURATION NUMBER_OF_FRAMES NUMBER_OF_BYTES
        BPS             : 195061
        DURATION        : 00:24:27.309000000
        NUMBER_OF_FRAMES: 68781
        NUMBER_OF_BYTES : 35777017
        _STATISTICS_WRITING_APP: mkvpropedit v66.0.0 ('Josie') 64-bit
        _STATISTICS_WRITING_DATE_UTC: 2025-05-04 17:44:32
        encoder         : Lavc61.19.100 pcm_s16le
frame=  104 fps=0.0 q=-0.0 size=N/A time=00:00:04.33 bitrate=N/A speed= 8.4x    frame=  259 fps=253 q=-0.0 size=N/A time=00:00:10.80 bitrate=N/A speed=10.5x    frame=  442 fps=286 q=-0.0 size=N/A time=00:00:18.43 bitrate=N/A speed=11.9x    frame=  620 fps=302 q=-0.0 size=N/A time=00:00:25.85 bitrate=N/A speed=12.6x    frame=  841 fps=326 q=-0.0 size=N/A time=00:00:35.07 bitrate=N/A speed=13.6x    frame= 1056 fps=343 q=-0.0 size=N/A time=00:00:44.04 bitrate=N/A speed=14.3x    frame= 1293 fps=359 q=-0.0 size=N/A time=00:00:53.92 bitrate=N/A speed=  15x    frame= 1509 fps=367 q=-0.0 size=N/A time=00:01:02.93 bitrate=N/A speed=15.3x    frame= 1735 fps=374 q=-0.0 size=N/A time=00:01:12.36 bitrate=N/A speed=15.6x    frame= 1951 fps=379 q=-0.0 size=N/A time=00:01:21.37 bitrate=N/A speed=15.8x    frame= 2192 fps=386 q=-0.0 size=N/A time=00:01:31.42 bitrate=N/A speed=16.1x    frame= 2440 fps=395 q=-0.0 size=N/A time=00:01:41.76 bitrate=N/A speed=16.5x    frame= 2682 fps=401 q=-0.0 size=N/A time=00:01:51.86 bitrate=N/A speed=16.7x    frame= 2840 fps=394 q=-0.0 size=N/A time=00:01:58.45 bitrate=N/A speed=16.4x    frame= 2973 fps=385 q=-0.0 size=N/A time=00:02:03.99 bitrate=N/A speed=16.1x    frame= 3109 fps=377 q=-0.0 size=N/A time=00:02:09.67 bitrate=N/A speed=15.7x    frame= 3316 fps=379 q=-0.0 size=N/A time=00:02:18.30 bitrate=N/A speed=15.8x    frame= 3557 fps=383 q=-0.0 size=N/A time=00:02:28.35 bitrate=N/A speed=  16x    frame= 3764 fps=384 q=-0.0 size=N/A time=00:02:36.99 bitrate=N/A speed=  16x    frame= 3946 fps=383 q=-0.0 size=N/A time=00:02:44.58 bitrate=N/A speed=  16x    frame= 4149 fps=383 q=-0.0 size=N/A time=00:02:53.04 bitrate=N/A speed=  16x    frame= 4343 fps=383 q=-0.0 size=N/A time=00:03:01.13 bitrate=N/A speed=  16x    frame= 4510 fps=381 q=-0.0 size=N/A time=00:03:08.10 bitrate=N/A speed=15.9x    frame= 4690 fps=379 q=-0.0 size=N/A time=00:03:15.61 bitrate=N/A speed=15.8x    frame= 4920 fps=382 q=-0.0 size=N/A time=00:03:25.20 bitrate=N/A speed=15.9x    frame= 5139 fps=383 q=-0.0 size=N/A time=00:03:34.33 bitrate=N/A speed=  16x    frame= 5347 fps=384 q=-0.0 size=N/A time=00:03:43.01 bitrate=N/A speed=  16x    frame= 5605 fps=388 q=-0.0 size=N/A time=00:03:53.77 bitrate=N/A speed=16.2x    frame= 5848 fps=391 q=-0.0 size=N/A time=00:04:03.91 bitrate=N/A speed=16.3x    frame= 6102 fps=395 q=-0.0 size=N/A time=00:04:14.50 bitrate=N/A speed=16.5x    frame= 6357 fps=398 q=-0.0 size=N/A time=00:04:25.13 bitrate=N/A speed=16.6x    frame= 6633 fps=402 q=-0.0 size=N/A time=00:04:36.65 bitrate=N/A speed=16.8x    frame= 6867 fps=404 q=-0.0 size=N/A time=00:04:46.41 bitrate=N/A speed=16.8x    frame= 7102 fps=405 q=-0.0 size=N/A time=00:04:56.21 bitrate=N/A speed=16.9x    frame= 7360 fps=408 q=-0.0 size=N/A time=00:05:06.97 bitrate=N/A speed=  17x    frame= 7619 fps=411 q=-0.0 size=N/A time=00:05:17.77 bitrate=N/A speed=17.1x    frame= 7897 fps=414 q=-0.0 size=N/A time=00:05:29.37 bitrate=N/A speed=17.3x    frame= 8152 fps=416 q=-0.0 size=N/A time=00:05:40.00 bitrate=N/A speed=17.4x    frame= 8419 fps=419 q=-0.0 size=N/A time=00:05:51.14 bitrate=N/A speed=17.5x    frame= 8672 fps=421 q=-0.0 size=N/A time=00:06:01.69 bitrate=N/A speed=17.5x    frame= 8939 fps=423 q=-0.0 size=N/A time=00:06:12.83 bitrate=N/A speed=17.6x    frame= 9206 fps=425 q=-0.0 size=N/A time=00:06:23.96 bitrate=N/A speed=17.7x    frame= 9435 fps=426 q=-0.0 size=N/A time=00:06:33.51 bitrate=N/A speed=17.8x    frame= 9662 fps=426 q=-0.0 size=N/A time=00:06:42.98 bitrate=N/A speed=17.8x    frame= 9945 fps=429 q=-0.0 size=N/A time=00:06:54.78 bitrate=N/A speed=17.9x    frame=10172 fps=429 q=-0.0 size=N/A time=00:07:04.25 bitrate=N/A speed=17.9x    frame=10429 fps=430 q=-0.0 size=N/A time=00:07:14.97 bitrate=N/A speed=  18x    frame=10694 fps=432 q=-0.0 size=N/A time=00:07:26.02 bitrate=N/A speed=  18x    frame=10944 fps=433 q=-0.0 size=N/A time=00:07:36.45 bitrate=N/A speed=18.1x    frame=11204 fps=434 q=-0.0 size=N/A time=00:07:47.30 bitrate=N/A speed=18.1x    frame=11455 fps=435 q=-0.0 size=N/A time=00:07:57.76 bitrate=N/A speed=18.2x    frame=11687 fps=436 q=-0.0 size=N/A time=00:08:07.44 bitrate=N/A speed=18.2x    frame=11953 fps=437 q=-0.0 size=N/A time=00:08:18.53 bitrate=N/A speed=18.2x    frame=12203 fps=438 q=-0.0 size=N/A time=00:08:28.96 bitrate=N/A speed=18.3x    frame=12470 fps=440 q=-0.0 size=N/A time=00:08:40.10 bitrate=N/A speed=18.3x    frame=12696 fps=440 q=-0.0 size=N/A time=00:08:49.52 bitrate=N/A speed=18.3x    frame=12973 fps=441 q=-0.0 size=N/A time=00:09:01.08 bitrate=N/A speed=18.4x    frame=13246 fps=443 q=-0.0 size=N/A time=00:09:12.46 bitrate=N/A speed=18.5x    frame=13505 fps=444 q=-0.0 size=N/A time=00:09:23.27 bitrate=N/A speed=18.5x    frame=13751 fps=444 q=-0.0 size=N/A time=00:09:33.53 bitrate=N/A speed=18.5x    frame=14026 fps=446 q=-0.0 size=N/A time=00:09:45.00 bitrate=N/A speed=18.6x    frame=14285 fps=447 q=-0.0 size=N/A time=00:09:55.80 bitrate=N/A speed=18.6x    frame=14533 fps=447 q=-0.0 size=N/A time=00:10:06.14 bitrate=N/A speed=18.7x    frame=14814 fps=449 q=-0.0 size=N/A time=00:10:17.86 bitrate=N/A speed=18.7x    frame=15091 fps=450 q=-0.0 size=N/A time=00:10:29.42 bitrate=N/A speed=18.8x    frame=15366 fps=451 q=-0.0 size=N/A time=00:10:40.89 bitrate=N/A speed=18.8x    frame=15631 fps=452 q=-0.0 size=N/A time=00:10:51.94 bitrate=N/A speed=18.9x    frame=15893 fps=453 q=-0.0 size=N/A time=00:11:02.87 bitrate=N/A speed=18.9x    frame=16180 fps=455 q=-0.0 size=N/A time=00:11:14.84 bitrate=N/A speed=  19x    frame=16444 fps=455 q=-0.0 size=N/A time=00:11:25.85 bitrate=N/A speed=  19x    frame=16707 fps=456 q=-0.0 size=N/A time=00:11:36.82 bitrate=N/A speed=  19x    frame=16960 fps=457 q=-0.0 size=N/A time=00:11:47.37 bitrate=N/A speed=  19x    frame=17193 fps=457 q=-0.0 size=N/A time=00:11:57.09 bitrate=N/A speed=  19x    frame=17453 fps=457 q=-0.0 size=N/A time=00:12:07.93 bitrate=N/A speed=19.1x    frame=17721 fps=458 q=-0.0 size=N/A time=00:12:19.11 bitrate=N/A speed=19.1x    frame=17974 fps=459 q=-0.0 size=N/A time=00:12:29.66 bitrate=N/A speed=19.1x    frame=18233 fps=459 q=-0.0 size=N/A time=00:12:40.46 bitrate=N/A speed=19.1x    frame=18482 fps=459 q=-0.0 size=N/A time=00:12:50.85 bitrate=N/A speed=19.2x    frame=18738 fps=460 q=-0.0 size=N/A time=00:13:01.53 bitrate=N/A speed=19.2x    frame=18986 fps=460 q=-0.0 size=N/A time=00:13:11.87 bitrate=N/A speed=19.2x    frame=19248 fps=461 q=-0.0 size=N/A time=00:13:22.80 bitrate=N/A speed=19.2x    frame=19492 fps=461 q=-0.0 size=N/A time=00:13:32.97 bitrate=N/A speed=19.2x    frame=19743 fps=461 q=-0.0 size=N/A time=00:13:43.44 bitrate=N/A speed=19.2x    frame=19971 fps=461 q=-0.0 size=N/A time=00:13:52.95 bitrate=N/A speed=19.2x    frame=20205 fps=461 q=-0.0 size=N/A time=00:14:02.71 bitrate=N/A speed=19.2x    frame=20436 fps=461 q=-0.0 size=N/A time=00:14:12.35 bitrate=N/A speed=19.2x    frame=20682 fps=461 q=-0.0 size=N/A time=00:14:22.61 bitrate=N/A speed=19.2x    frame=20934 fps=461 q=-0.0 size=N/A time=00:14:33.12 bitrate=N/A speed=19.2x    frame=21173 fps=461 q=-0.0 size=N/A time=00:14:43.09 bitrate=N/A speed=19.2x    frame=21419 fps=461 q=-0.0 size=N/A time=00:14:53.35 bitrate=N/A speed=19.2x    frame=21682 fps=462 q=-0.0 size=N/A time=00:15:04.32 bitrate=N/A speed=19.3x    frame=21944 fps=463 q=-0.0 size=N/A time=00:15:15.24 bitrate=N/A speed=19.3x    frame=22204 fps=463 q=-0.0 size=N/A time=00:15:26.09 bitrate=N/A speed=19.3x    frame=22439 fps=463 q=-0.0 size=N/A time=00:15:35.89 bitrate=N/A speed=19.3x    frame=22670 fps=463 q=-0.0 size=N/A time=00:15:45.52 bitrate=N/A speed=19.3x    frame=22924 fps=463 q=-0.0 size=N/A time=00:15:56.12 bitrate=N/A speed=19.3x    frame=23167 fps=463 q=-0.0 size=N/A time=00:16:06.25 bitrate=N/A speed=19.3x    frame=23408 fps=463 q=-0.0 size=N/A time=00:16:16.30 bitrate=N/A speed=19.3x    frame=23648 fps=463 q=-0.0 size=N/A time=00:16:26.31 bitrate=N/A speed=19.3x    frame=23890 fps=463 q=-0.0 size=N/A time=00:16:36.41 bitrate=N/A speed=19.3x    frame=24111 fps=463 q=-0.0 size=N/A time=00:16:45.62 bitrate=N/A speed=19.3x    frame=24319 fps=462 q=-0.0 size=N/A time=00:16:54.30 bitrate=N/A speed=19.3x    frame=24535 fps=462 q=-0.0 size=N/A time=00:17:03.31 bitrate=N/A speed=19.3x    frame=24778 fps=462 q=-0.0 size=N/A time=00:17:13.44 bitrate=N/A speed=19.3x    frame=25041 fps=462 q=-0.0 size=N/A time=00:17:24.41 bitrate=N/A speed=19.3x    frame=25315 fps=463 q=-0.0 size=N/A time=00:17:35.84 bitrate=N/A speed=19.3x    frame=25580 fps=464 q=-0.0 size=N/A time=00:17:46.89 bitrate=N/A speed=19.3x    frame=25840 fps=464 q=-0.0 size=N/A time=00:17:57.74 bitrate=N/A speed=19.4x    frame=26111 fps=464 q=-0.0 size=N/A time=00:18:09.04 bitrate=N/A speed=19.4x    frame=26357 fps=465 q=-0.0 size=N/A time=00:18:19.30 bitrate=N/A speed=19.4x    frame=26556 fps=464 q=-0.0 size=N/A time=00:18:27.60 bitrate=N/A speed=19.3x    frame=26805 fps=464 q=-0.0 size=N/A time=00:18:37.99 bitrate=N/A speed=19.4x    frame=27023 fps=464 q=-0.0 size=N/A time=00:18:47.08 bitrate=N/A speed=19.3x    frame=27265 fps=464 q=-0.0 size=N/A time=00:18:57.17 bitrate=N/A speed=19.3x    frame=27516 fps=464 q=-0.0 size=N/A time=00:19:07.64 bitrate=N/A speed=19.3x    frame=27752 fps=464 q=-0.0 size=N/A time=00:19:17.48 bitrate=N/A speed=19.3x    frame=28021 fps=464 q=-0.0 size=N/A time=00:19:28.70 bitrate=N/A speed=19.4x    frame=28264 fps=464 q=-0.0 size=N/A time=00:19:38.84 bitrate=N/A speed=19.4x    frame=28500 fps=464 q=-0.0 size=N/A time=00:19:48.68 bitrate=N/A speed=19.4x    frame=28736 fps=464 q=-0.0 size=N/A time=00:19:58.53 bitrate=N/A speed=19.4x    frame=28984 fps=464 q=-0.0 size=N/A time=00:20:08.87 bitrate=N/A speed=19.4x    frame=29240 fps=465 q=-0.0 size=N/A time=00:20:19.55 bitrate=N/A speed=19.4x    frame=29464 fps=464 q=-0.0 size=N/A time=00:20:28.89 bitrate=N/A speed=19.4x    frame=29718 fps=465 q=-0.0 size=N/A time=00:20:39.48 bitrate=N/A speed=19.4x    frame=29957 fps=464 q=-0.0 size=N/A time=00:20:49.45 bitrate=N/A speed=19.4x    frame=30194 fps=464 q=-0.0 size=N/A time=00:20:59.34 bitrate=N/A speed=19.4x    frame=30422 fps=464 q=-0.0 size=N/A time=00:21:08.85 bitrate=N/A speed=19.4x    frame=30658 fps=464 q=-0.0 size=N/A time=00:21:18.69 bitrate=N/A speed=19.4x    frame=30807 fps=463 q=-0.0 size=N/A time=00:21:24.90 bitrate=N/A speed=19.3x    frame=31049 fps=463 q=-0.0 size=N/A time=00:21:35.00 bitrate=N/A speed=19.3x    frame=31259 fps=463 q=-0.0 size=N/A time=00:21:43.76 bitrate=N/A speed=19.3x    frame=31484 fps=462 q=-0.0 size=N/A time=00:21:53.14 bitrate=N/A speed=19.3x    frame=31741 fps=463 q=-0.0 size=N/A time=00:22:03.86 bitrate=N/A speed=19.3x    frame=32001 fps=463 q=-0.0 size=N/A time=00:22:14.70 bitrate=N/A speed=19.3x    frame=32264 fps=463 q=-0.0 size=N/A time=00:22:25.67 bitrate=N/A speed=19.3x    frame=32508 fps=463 q=-0.0 size=N/A time=00:22:35.85 bitrate=N/A speed=19.3x    frame=32740 fps=463 q=-0.0 size=N/A time=00:22:45.53 bitrate=N/A speed=19.3x    frame=32964 fps=463 q=-0.0 size=N/A time=00:22:54.87 bitrate=N/A speed=19.3x    frame=33180 fps=463 q=-0.0 size=N/A time=00:23:03.88 bitrate=N/A speed=19.3x    frame=33382 fps=462 q=-0.0 size=N/A time=00:23:12.30 bitrate=N/A speed=19.3x    frame=33605 fps=462 q=-0.0 size=N/A time=00:23:21.60 bitrate=N/A speed=19.3x    frame=33812 fps=462 q=-0.0 size=N/A time=00:23:30.24 bitrate=N/A speed=19.3x    frame=33985 fps=461 q=-0.0 size=N/A time=00:23:37.45 bitrate=N/A speed=19.2x    frame=34162 fps=460 q=-0.0 size=N/A time=00:23:44.84 bitrate=N/A speed=19.2x    frame=34370 fps=459 q=-0.0 size=N/A time=00:23:53.51 bitrate=N/A speed=19.2x    frame=34556 fps=459 q=-0.0 size=N/A time=00:24:01.27 bitrate=N/A speed=19.1x    frame=34767 fps=458 q=-0.0 size=N/A time=00:24:10.07 bitrate=N/A speed=19.1x    frame=34993 fps=458 q=-0.0 size=N/A time=00:24:19.49 bitrate=N/A speed=19.1x    [Parsed_ssim_10 @ 00000295e882ec80] SSIM Y:0.993537 (21.895491) U:0.993380 (21.791369) V:0.993943 (22.177194) All:0.993578 (21.923478)
[out#0/null @ 00000295dc9fec00] video:15116KiB audio:275124KiB subtitle:0KiB other streams:0KiB global headers:0KiB muxing overhead: unknown
frame=35178 fps=458 q=-0.0 Lsize=N/A time=00:24:27.21 bitrate=N/A speed=19.1x    
